<svg xmlns="http://www.w3.org/2000/svg" viewBox="0 0 30 30">
    <path fill="#fff" fill-rule="evenodd" d="M23.246 23.369a5.379 5.379 0 0 1-2.14.673c-1.773.179-3.252-.427-4.484-1.689-.012-.012-.024-.025-.038-.036-.005-.004-.013-.003-.031-.007-.06.227-.116.456-.182.682-.437 1.486-1.418 2.404-2.932 2.703-1.277.252-2.403-.113-3.33-1.024-.326-.322-.593-.703-.882-1.063-.551-.685-1.1-1.373-1.645-2.062a3.676 3.676 0 0 1-.79-2.027c-.07-.843.141-1.612.598-2.319l.023-.038c-.154-.116-.31-.225-.456-.346-.651-.541-1.048-1.236-1.226-2.059-.184-.853-.364-1.707-.547-2.561a3.609 3.609 0 0 1-.074-.939.615.615 0 0 0-.067-.336 3.555 3.555 0 0 1-.394-1.963c.079-1.014.521-1.858 1.281-2.53.586-.52 1.284-.799 2.056-.877 1.148-.117 2.134.256 2.969 1.039.303.283.541.618.726.989.009.019.021.036.029.052.191-.203.37-.413.569-.602.698-.665 1.53-1.074 2.47-1.27.47-.099.946-.14 1.426-.087a.51.51 0 0 0 .31-.077 4.947 4.947 0 0 1 1.884-.58c1.411-.144 2.669.246 3.78 1.12 1.033.811 1.649 1.877 1.908 3.158.109.544.238 1.084.34 1.629.175.938-.004 1.814-.505 2.626l-.071.115c.244.209.496.395.715.616.519.523.816 1.164.962 1.882.114.561.244 1.118.347 1.682a5.001 5.001 0 0 1-.403 3.126c-.487 1.022-1.205 1.838-2.196 2.4M15.002 0C6.92 0 .369 6.552.369 14.634c0 3.704 1.377 7.086 3.646 9.664L.36 27.22A23.311 23.311 0 0 0 11.433 30c2.913 0 5.7-.533 8.272-1.506 5.775-1.959 9.93-7.424 9.93-13.86C29.635 6.552 23.084 0 15.002 0m6.644 11.614a.802.802 0 0 1-.978-.19c-.126-.14-.168-.316-.205-.494-.101-.48-.201-.962-.304-1.44-.08-.367-.368-.62-.716-.634a.765.765 0 0 0-.784.56c-.066.212 0 .412.04.615.097.464.205.925.29 1.391.08.44-.214.84-.66.923-.413.08-.82-.206-.911-.638-.113-.53-.222-1.059-.34-1.586-.088-.392-.457-.663-.814-.61-.435.061-.736.403-.7.827.02.227.086.451.134.675.073.346.155.69.219 1.038.08.432-.208.862-.617.94-.444.083-.851-.195-.946-.648-.118-.555-.243-1.11-.35-1.669-.242-1.256.572-2.503 1.816-2.749a2.319 2.319 0 0 1 1.644.261c.205-.189.39-.39.606-.554.337-.258.735-.365 1.155-.409 1.084-.112 2.248.677 2.489 1.935.1.52.219 1.037.33 1.555.082.374-.078.74-.398.901m1.763-1.138c-.11-.518-.222-1.036-.328-1.554a4.123 4.123 0 0 0-.468-1.253 3.605 3.605 0 0 0-1.02-1.117 3.487 3.487 0 0 0-.144-.103 3.561 3.561 0 0 0-2.294-.63 3.602 3.602 0 0 0-1.926.706.31.31 0 0 1-.041.026.274.274 0 0 1-.04.015.206.206 0 0 1-.092-.002 3.845 3.845 0 0 0-.77-.092 3.049 3.049 0 0 0-.466.031 4.03 4.03 0 0 0-.993.268 3.467 3.467 0 0 0-1.139.772 3.98 3.98 0 0 0-.514.654c-.066.104-.127.21-.183.317a3.596 3.596 0 0 0-.4 2.042c.012.121.029.242.052.364.11.575.24 1.147.36 1.72.014.062.029.122.046.181a2.166 2.166 0 0 0 .676 1.052c.26.225.556.381.864.465a2.101 2.101 0 0 0 1.975-.472 2.788 2.788 0 0 0 .222-.235c.07-.084.14-.172.216-.259a2.323 2.323 0 0 0 .382.213c.197.086.402.141.615.164.212.021.433.01.662-.039.304-.066.57-.186.8-.353.23-.167.424-.382.587-.638h.022c.03.017.062.034.092.053a2.081 2.081 0 0 0 1.535.291 2.034 2.034 0 0 0 .976-.463 2.268 2.268 0 0 0 .781-1.692c0-.144-.015-.288-.045-.432m-.506 9.195c-.49.579-1.134.822-1.638.835-1.39 0-2.352-.811-2.59-1.98-.106-.521-.222-1.043-.327-1.565-.087-.435.259-.884.7-.921.484-.041.824.22.922.698.103.505.214 1.009.319 1.514a.816.816 0 0 0 .907.622c.376-.057.697-.415.66-.801-.024-.261-.097-.52-.15-.78-.068-.327-.143-.655-.204-.984a.82.82 0 0 1 .612-.926c.433-.1.879.15.977.572.14.603.278 1.206.38 1.816.119.716-.103 1.35-.568 1.9m1.947-2.296c-.11-.548-.234-1.092-.343-1.64-.314-1.587-2.211-2.355-3.57-1.297-.201.158-.36.375-.55.575-.528-.358-1.12-.466-1.764-.321-1.144.258-1.914 1.458-1.664 2.605.11.515.219 1.03.326 1.545.136.653.389 1.256.845 1.747.965 1.04 2.146 1.505 3.568 1.265.989-.166 1.805-.63 2.416-1.432.69-.906.96-1.92.736-3.047m-9.93.833c-.293 1.13-.593 2.26-.888 3.392a.756.756 0 0 1-.605.586c-.337.075-.61-.028-.827-.3a997.432 997.432 0 0 0-2.213-2.777c-.21-.262-.27-.552-.138-.864.134-.318.395-.474.732-.498a.711.711 0 0 1 .625.278c.392.485.78.974 1.17 1.46.026.034.053.065.093.114l.503-1.92c.106-.406.463-.642.895-.594.362.039.682.379.697.758.005.12-.013.247-.043.365m.592-2.084a2.19 2.19 0 0 0-2.781.09c-.171.149-.308.339-.466.517a.544.544 0 0 1-.048-.03c-.636-.404-1.314-.46-2.013-.206A2.215 2.215 0 0 0 9.275 20c.719.892 1.43 1.789 2.143 2.686.562.708 1.284 1.02 2.186.89a2.23 2.23 0 0 0 1.813-1.643c.296-1.128.59-2.255.89-3.382.252-.948-.046-1.865-.794-2.428m-5.496-2.009c-.45.092-.855-.174-.957-.64a249.29 249.29 0 0 1-.543-2.569.785.785 0 0 1 .79-.96.797.797 0 0 1 .78.616c.187.863.373 1.726.552 2.59a.81.81 0 0 1-.622.963M8.035 8.577a.812.812 0 0 1 .802-.818c.447-.002.809.372.81.836a.792.792 0 0 1-.812.801.808.808 0 0 1-.8-.819m3.985 4.258c-.056-.25-.108-.502-.163-.753-.108-.502-.214-1.004-.316-1.507-.091-.453-.22-.887-.53-1.243a.147.147 0 0 1-.04-.132c.002-.01.002-.019.005-.03a2.163 2.163 0 0 0-.219-1.719 2.172 2.172 0 0 0-.68-.722 2.298 2.298 0 0 0-.635-.294 2.197 2.197 0 0 0-1.455.093 2.34 2.34 0 0 0-.455.258c-.516.377-.868.964-.91 1.604-.04.6.12 1.143.516 1.606.043.05.05.091.032.15a2.076 2.076 0 0 0-.09.634c.002.128.017.256.044.384.185.886.372 1.77.562 2.654.03.143.074.277.128.403.38.881 1.29 1.341 1.999 1.322l.175-.015a2.26 2.26 0 0 0 1.048-.334 2.2 2.2 0 0 0 .858-1.002c.176-.41.23-.88.126-1.357"></path>
</svg>
